<?xml version="1.0" encoding="utf-8"?>
<!-- Generator: Adobe Illustrator 19.1.0, SVG Export Plug-In . SVG Version: 6.00 Build 0)  -->
<svg version="1.1" id="Layer_1" xmlns="http://www.w3.org/2000/svg" xmlns:xlink="http://www.w3.org/1999/xlink" x="0px" y="0px"
	 viewBox="0 0 960 560" style="enable-background:new 0 0 960 560;" xml:space="preserve">
<style type="text/css">
	.st0{fill-rule:evenodd;clip-rule:evenodd;fill:#00B6B3;}
	.st1{fill-rule:evenodd;clip-rule:evenodd;fill:#F05A28;}
</style>
<g>
	<path class="st0" d="M215.3,325.9c4.8-12.4,9.6-24.8,14.5-37.2c10.8-27.3,21.8-54.6,32.4-82c5-12.8,9.5-25.9,14.1-38.9
		c8.4-24,16.6-48.1,25-72.1c2-5.9,3.5-12.2,6.7-17.3c3.6-5.8,9.3-10,16.8-5.8c7.1,3.9,8.6,10.5,6.6,17.9c-1.7,6.4-3.6,12.7-5.8,18.9
		c-13,36.8-25.6,73.7-39.2,110.2c-11.9,31.8-24.8,63.1-37.5,94.5c-5,12.4-9.5,25.4-16.6,36.7c-10.1,16.1-33.3,15.4-41.9-0.4
		c-3.2-5.9-5.9-13-5.9-19.5c0-42,0.9-84.1,1.3-126.1c0.3-27.3,0-54.7,0.3-82c0.1-7.8,0.8-15.6,1.9-23.3c0.9-7,5-12.4,12.4-11.6
		c6.9,0.7,12.4,4.7,12.6,12.9c0.1,3.3,0.1,6.6,0.1,9.9c0,68.2,0,136.4,0,204.6c0,3.4,0,6.9,0,10.3
		C213.8,325.6,214.5,325.8,215.3,325.9z"/>
	<path class="st0" d="M555.3,264.6c-1.6,2-3.3,3.9-4.6,6.1c-11.4,17.9-22.8,36-34.2,53.9c-6.4,10-13.6,14.4-20,12.2
		c-7.5-2.6-11.8-11.5-8.6-23.1c7.7-27.5,19.8-53.4,39.9-73.6c8.8-8.7,18.4-16,24.7-27.2c3.8-6.7,11-9.3,18.8-8
		c7.7,1.4,11.8,6.9,13.6,14c1.1,4.3,1.6,8.9,1.6,13.3c0.1,24.9,0.3,49.9,0,74.8c-0.3,33-9.6,63.8-24.1,93.3
		c-8.8,17.8-21.3,32.7-36.2,45.4c-14.2,12.1-30.8,18.4-49.8,16.5c-7.4-0.7-12.9-4.2-13.8-11.8c-0.9-8,4.4-11.9,11.3-14
		c0.6-0.2,1.2-0.4,1.7-0.4c38-2.3,53.5-30.4,67.4-59.6c11.2-23.6,16-48.9,14.8-75.2c-0.4-8.9,1.2-17.9,1.5-26.9
		c0.1-3.1-0.8-6.2-1.2-9.2C557.2,265,556.2,264.8,555.3,264.6z"/>
	<path class="st0" d="M688.5,366.1c-11-1.4-22.1-2-32.8-4.5c-13.9-3.3-18.3-10.5-18.8-24.7c-0.7-19.5,7-36.7,15.8-52.8
		c11.6-21.2,25.3-41.3,38.6-61.6c6.5-9.9,16.1-15.9,27.6-19c15.4-4.2,29.6,4.5,32,20.3c3.5,23-0.9,44.4-16.2,62.3
		c-13.5,15.7-32.1,16-50.7,12.5c-5.8-1.1-8.4-0.1-10.1,5.1c-2.4,7.4-5.7,14.5-7.5,22.1c-1.6,6.4,1.5,10,8.6,10.4
		c33.8,1.7,66.4-2.7,97-18.2c3.6-1.8,7.9-2.8,11.9-3.4c5.9-0.8,10.6,1.5,12.7,7.6c2.3,6.7,0,12.2-5.7,15.5
		c-7.5,4.4-15.2,8.6-23.3,11.8C742.3,359.5,716.2,365.9,688.5,366.1z M722.8,231.4c-13.7,9.4-21.8,22.3-28.6,35.8
		c-2.5,4.9,2.5,5.5,6.4,5.2C716.2,270.9,729,248.8,722.8,231.4z"/>
	<path class="st0" d="M441.5,245.2c-17,17.9-32.2,33.4-39,54.9c-3.6,11.4-5.6,23.4-9.9,34.5c-4.9,12.8-15.3,15.6-23.9,7.6
		c-1.8-1.7-3.6-4.4-3.8-6.8c-0.7-11.7-1.5-23.3,4.4-34.3c10.6-19.5,11.7-41.3,14.9-62.6c1.6-10.3,1.3-20.9,2.2-31.4
		c0.9-10.3,6.1-15.7,14.1-15.2c8,0.5,12.5,6.3,12.7,16.5c0.1,6.6,0,13.2,0,19.9c1.6,0.8,3.2,1.6,4.9,2.3c3.6-4.6,6.7-9.9,11-13.9
		c16.7-15.4,30.6-12,38,9.2c2.3,6.7,3.6,14.1,3.7,21.1c0.4,36,0.3,72.1,0,108.1c0,5.5-1.5,11.3-3.6,16.5c-2.5,6.3-8.6,9.7-14.6,6.9
		c-4.3-2-9.8-7.7-9.9-11.8c-0.5-30,0.4-60,0.5-90C443.3,267.2,442.2,257.5,441.5,245.2z"/>
	<path class="st0" d="M655.3,176.9c-4.3,30.2-8.3,60.4-13,90.6c-2.9,18.6-6.6,37.2-10.2,55.7c-2.4,12-5.4,23.9-8.2,35.8
		c-0.3,1.5-0.9,2.9-1.4,4.3c-3.7,8.6-9.4,12.2-16.6,10.4c-6.6-1.7-11.3-9.9-9.6-18.1c3-15,6.9-29.7,9.8-44.7
		c4.6-23.8,9.6-47.6,12.8-71.6c3.5-26.3,5-52.9,7.5-79.4c0.8-9,6.4-15,13.9-14.8c7.6,0.2,12.6,5.9,13,15.4c0.3,5.4,0,10.8,0,16.2
		C653.9,176.7,654.6,176.8,655.3,176.9z"/>
	<path class="st0" d="M362.5,203.3c-4.9,25.6-9.6,51.3-14.7,76.8c-4.2,20.6-8.9,41-13.5,61.5c-0.8,3.5-1.2,8-3.6,10
		c-4,3.3-10,7.6-14.1,6.7c-4-0.9-9.5-8-9.2-12.1c0.7-13.7,3.5-27.3,6-40.8c6.7-36.2,13.6-72.4,20.6-108.5c0.7-3.4,1.6-7.2,3.6-9.9
		c5.8-8.2,18.3-6.6,21.7,2.8c1.5,4.1,1.6,8.8,2.4,13.2C361.9,203.1,362.2,203.2,362.5,203.3z"/>
	<path class="st1" d="M376.5,138.6c-0.2,6.1-7.6,13.1-13.8,13.1c-7,0-12.8-6.7-12.6-14.5c0.2-7.6,5.8-13.1,13-12.9
		C370.3,124.5,376.8,131.5,376.5,138.6z"/>
</g>
</svg>
