<?xml version="1.0" encoding="utf-8"?>
<!-- Generator: Adobe Illustrator 19.1.0, SVG Export Plug-In . SVG Version: 6.00 Build 0)  -->
<svg version="1.1" id="Layer_1" xmlns="http://www.w3.org/2000/svg" xmlns:xlink="http://www.w3.org/1999/xlink" x="0px" y="0px"
	 viewBox="0 0 960 560" style="enable-background:new 0 0 960 560;" xml:space="preserve">
<style type="text/css">
	.st0{fill-rule:evenodd;clip-rule:evenodd;fill:#FFFFFF;}
	.st1{fill-rule:evenodd;clip-rule:evenodd;fill:#F05A28;}
</style>
<g>
	<path class="st0" d="M327.7,314.5c2.7-6.9,5.3-13.8,8-20.6c6-15.1,12.1-30.2,18-45.4c2.8-7.1,5.3-14.3,7.8-21.6
		c4.7-13.3,9.2-26.7,13.9-40c1.1-3.3,1.9-6.7,3.7-9.6c2-3.2,5.2-5.5,9.3-3.2c3.9,2.2,4.8,5.8,3.7,9.9c-0.9,3.5-2,7-3.2,10.5
		c-7.2,20.4-14.2,40.8-21.8,61.1c-6.6,17.6-13.7,35-20.8,52.4c-2.8,6.9-5.3,14.1-9.2,20.3c-5.6,8.9-18.4,8.6-23.2-0.2
		c-1.8-3.3-3.3-7.2-3.3-10.8c0-23.3,0.5-46.6,0.7-69.9c0.1-15.2,0-30.3,0.2-45.5c0-4.3,0.5-8.6,1-12.9c0.5-3.9,2.8-6.8,6.9-6.4
		c3.8,0.4,6.8,2.6,7,7.1c0.1,1.8,0.1,3.7,0.1,5.5c0,37.8,0,75.6,0,113.4c0,1.9,0,3.8,0,5.7C326.9,314.3,327.3,314.4,327.7,314.5z"/>
	<path class="st0" d="M516.2,280.5c-0.9,1.1-1.8,2.2-2.6,3.4c-6.3,10-12.6,19.9-19,29.9c-3.5,5.6-7.5,8-11.1,6.8
		c-4.2-1.4-6.5-6.4-4.7-12.8c4.3-15.2,11-29.6,22.1-40.8c4.9-4.8,10.2-8.9,13.7-15.1c2.1-3.7,6.1-5.2,10.4-4.4
		c4.2,0.8,6.6,3.8,7.6,7.8c0.6,2.4,0.9,4.9,0.9,7.4c0.1,13.8,0.1,27.6,0,41.5c-0.2,18.3-5.3,35.4-13.4,51.7
		c-4.9,9.9-11.8,18.1-20.1,25.2c-7.9,6.7-17,10.2-27.6,9.1c-4.1-0.4-7.1-2.3-7.6-6.6c-0.5-4.4,2.4-6.6,6.3-7.7
		c0.3-0.1,0.6-0.2,1-0.2c21.1-1.3,29.7-16.9,37.4-33c6.2-13.1,8.9-27.1,8.2-41.7c-0.2-4.9,0.6-9.9,0.8-14.9c0.1-1.7-0.4-3.4-0.7-5.1
		C517.2,280.7,516.7,280.6,516.2,280.5z"/>
	<path class="st0" d="M590.1,336.8c-6.1-0.8-12.3-1.1-18.2-2.5c-7.7-1.8-10.1-5.8-10.4-13.7c-0.4-10.8,3.9-20.3,8.7-29.3
		c6.4-11.8,14-22.9,21.4-34.1c3.6-5.5,8.9-8.8,15.3-10.5c8.6-2.3,16.4,2.5,17.7,11.2c2,12.8-0.5,24.6-9,34.5
		c-7.5,8.7-17.8,8.9-28.1,7c-3.2-0.6-4.6-0.1-5.6,2.8c-1.4,4.1-3.1,8.1-4.2,12.2c-0.9,3.6,0.8,5.5,4.8,5.7
		c18.8,1,36.8-1.5,53.8-10.1c2-1,4.4-1.6,6.6-1.9c3.3-0.4,5.9,0.9,7,4.2c1.3,3.7,0,6.7-3.2,8.6c-4.1,2.5-8.4,4.8-12.9,6.5
		C619.8,333.1,605.4,336.7,590.1,336.8z M609,262.1c-7.6,5.2-12.1,12.4-15.8,19.8c-1.4,2.7,1.4,3.1,3.5,2.9
		C605.4,284,612.5,271.7,609,262.1z"/>
	<path class="st0" d="M453.1,269.7c-9.4,9.9-17.8,18.5-21.6,30.5c-2,6.3-3.1,13-5.5,19.1c-2.7,7.1-8.5,8.6-13.2,4.2
		c-1-0.9-2-2.5-2.1-3.8c-0.4-6.5-0.8-12.9,2.5-19c5.9-10.8,6.5-22.9,8.2-34.7c0.9-5.7,0.7-11.6,1.2-17.4c0.5-5.7,3.4-8.7,7.8-8.4
		c4.4,0.3,7,3.5,7,9.2c0.1,3.7,0,7.3,0,11c0.9,0.4,1.8,0.9,2.7,1.3c2-2.6,3.7-5.5,6.1-7.7c9.2-8.5,17-6.7,21.1,5.1
		c1.3,3.7,2,7.8,2,11.7c0.2,20,0.2,40,0,59.9c0,3.1-0.9,6.3-2,9.1c-1.4,3.5-4.8,5.4-8.1,3.8c-2.4-1.1-5.5-4.3-5.5-6.5
		c-0.3-16.6,0.2-33.3,0.3-49.9C454.1,281.9,453.5,276.6,453.1,269.7z"/>
	<path class="st0" d="M571.7,231.9c-2.4,16.7-4.6,33.5-7.2,50.2c-1.6,10.3-3.6,20.6-5.7,30.9c-1.3,6.7-3,13.2-4.5,19.9
		c-0.2,0.8-0.5,1.6-0.8,2.4c-2.1,4.8-5.2,6.8-9.2,5.8c-3.7-0.9-6.3-5.5-5.3-10c1.7-8.3,3.8-16.5,5.4-24.8
		c2.6-13.2,5.3-26.4,7.1-39.7c1.9-14.6,2.8-29.3,4.1-44c0.5-5,3.6-8.3,7.7-8.2c4.2,0.1,7,3.3,7.2,8.5c0.1,3,0,6,0,9
		C570.9,231.8,571.3,231.8,571.7,231.9z"/>
	<path class="st0" d="M409.3,246.5c-2.7,14.2-5.3,28.4-8.2,42.6c-2.3,11.4-4.9,22.7-7.5,34.1c-0.4,1.9-0.7,4.4-2,5.5
		c-2.2,1.9-5.5,4.2-7.8,3.7c-2.2-0.5-5.2-4.4-5.1-6.7c0.4-7.6,1.9-15.1,3.3-22.6c3.7-20.1,7.5-40.1,11.4-60.2c0.4-1.9,0.9-4,2-5.5
		c3.2-4.6,10.1-3.6,12,1.6c0.8,2.3,0.9,4.9,1.3,7.3C409,246.4,409.2,246.5,409.3,246.5z"/>
	<path class="st1" d="M417.1,210.6c-0.1,3.4-4.2,7.3-7.6,7.3c-3.9,0-7.1-3.7-7-8c0.1-4.2,3.2-7.3,7.2-7.1
		C413.6,202.8,417.2,206.7,417.1,210.6z"/>
</g>
</svg>
